<svg xmlns="http://www.w3.org/2000/svg" xmlns:xlink="http://www.w3.org/1999/xlink" width="500" zoomAndPan="magnify" viewBox="0 0 375 374.999991" height="500" preserveAspectRatio="xMidYMid meet" version="1.0"><defs><g/><clipPath id="7c0fefb395"><path d="M 43.347656 49.195312 L 320 49.195312 L 320 156.445312 L 43.347656 156.445312 Z M 43.347656 49.195312 " clip-rule="nonzero"/></clipPath><clipPath id="39e5c41aa7"><path d="M 93 99 L 270 99 L 270 156.445312 L 93 156.445312 Z M 93 99 " clip-rule="nonzero"/></clipPath><clipPath id="70e5c43a4a"><path d="M 43.347656 224.277344 L 320 224.277344 L 320 325.527344 L 43.347656 325.527344 Z M 43.347656 224.277344 " clip-rule="nonzero"/></clipPath><clipPath id="3802e5491d"><path d="M 93 224.277344 L 270 224.277344 L 270 276 L 93 276 Z M 93 224.277344 " clip-rule="nonzero"/></clipPath><clipPath id="3dea8b7b01"><path d="M 179 251 L 199.722656 251 L 199.722656 271.238281 L 179 271.238281 Z M 179 251 " clip-rule="nonzero"/></clipPath></defs><g clip-path="url(#7c0fefb395)"><path fill="#ffffff" d="M 181.65625 284.636719 C 128.097656 284.636719 84.523438 241.0625 84.523438 187.503906 C 84.523438 133.945312 128.097656 90.371094 181.65625 90.371094 C 235.214844 90.371094 278.789062 133.945312 278.789062 187.503906 C 278.789062 241.0625 235.214844 284.636719 181.65625 284.636719 Z M 297.289062 187.503906 C 297.289062 186.140625 297.234375 184.785156 297.1875 183.433594 L 319.957031 176.703125 C 319.574219 171.773438 318.9375 166.921875 318.054688 162.148438 L 294.328125 161.539062 C 293.714844 158.871094 293.03125 156.234375 292.242188 153.644531 L 312.464844 141.265625 C 310.820312 136.632812 308.960938 132.101562 306.851562 127.707031 L 283.777344 133.257812 C 282.496094 130.851562 281.125 128.5 279.683594 126.199219 L 296.003906 109.019531 C 293.222656 104.976562 290.21875 101.101562 287.035156 97.378906 L 266.230469 108.691406 C 264.378906 106.703125 262.457031 104.78125 260.472656 102.929688 L 271.78125 82.125 C 268.058594 78.941406 264.183594 75.9375 260.140625 73.15625 L 242.960938 89.476562 C 240.660156 88.03125 238.308594 86.664062 235.902344 85.382812 L 241.453125 62.308594 C 237.058594 60.203125 232.527344 58.339844 227.894531 56.695312 L 215.515625 76.921875 C 212.925781 76.128906 210.289062 75.445312 207.625 74.835938 L 207.011719 51.105469 C 202.242188 50.222656 197.390625 49.585938 192.460938 49.203125 L 185.726562 71.976562 C 184.375 71.929688 183.019531 71.871094 181.65625 71.871094 C 180.292969 71.871094 178.933594 71.929688 177.582031 71.976562 L 170.851562 49.203125 C 165.921875 49.585938 161.070312 50.222656 156.296875 51.105469 L 155.6875 74.835938 C 153.023438 75.445312 150.382812 76.128906 147.792969 76.921875 L 135.414062 56.695312 C 130.78125 58.339844 126.25 60.203125 121.859375 62.308594 L 127.410156 85.382812 C 125 86.664062 122.652344 88.03125 120.347656 89.476562 L 103.167969 73.15625 C 99.128906 75.9375 95.25 78.941406 91.53125 82.125 L 102.839844 102.929688 C 100.851562 104.78125 98.933594 106.703125 97.078125 108.691406 L 76.273438 97.378906 C 73.089844 101.101562 70.089844 104.976562 67.304688 109.019531 L 83.625 126.199219 C 82.183594 128.5 80.8125 130.851562 79.53125 133.257812 L 56.460938 127.707031 C 54.351562 132.101562 52.488281 136.632812 50.847656 141.265625 L 71.070312 153.644531 C 70.277344 156.234375 69.597656 158.871094 68.984375 161.539062 L 45.257812 162.148438 C 44.375 166.921875 43.738281 171.773438 43.355469 176.703125 L 66.125 183.433594 C 66.078125 184.785156 66.023438 186.140625 66.023438 187.503906 C 66.023438 188.871094 66.078125 190.226562 66.125 191.578125 L 43.355469 198.308594 C 43.738281 203.238281 44.375 208.089844 45.257812 212.863281 L 68.984375 213.472656 C 69.597656 216.136719 70.277344 218.777344 71.070312 221.367188 L 50.847656 233.746094 C 52.488281 238.378906 54.351562 242.910156 56.460938 247.300781 L 79.53125 241.75 C 80.8125 244.15625 82.179688 246.507812 83.625 248.808594 L 67.304688 265.992188 C 70.089844 270.03125 73.089844 273.910156 76.273438 277.628906 L 97.078125 266.320312 C 98.929688 268.308594 100.851562 270.230469 102.839844 272.082031 L 91.53125 292.886719 C 95.25 296.070312 99.128906 299.070312 103.167969 301.855469 L 120.347656 285.535156 C 122.652344 286.976562 125 288.347656 127.410156 289.628906 L 121.859375 312.703125 C 126.25 314.808594 130.78125 316.671875 135.414062 318.3125 L 147.792969 298.089844 C 150.382812 298.882812 153.023438 299.5625 155.6875 300.175781 L 156.296875 323.902344 C 161.070312 324.785156 165.921875 325.421875 170.851562 325.804688 L 177.582031 303.035156 C 178.933594 303.082031 180.292969 303.136719 181.65625 303.136719 C 183.019531 303.136719 184.375 303.082031 185.726562 303.035156 L 192.460938 325.804688 C 197.390625 325.421875 202.242188 324.785156 207.011719 323.902344 L 207.625 300.175781 C 210.289062 299.5625 212.925781 298.882812 215.515625 298.089844 L 227.894531 318.3125 C 232.527344 316.671875 237.058594 314.808594 241.453125 312.703125 L 235.902344 289.628906 C 238.308594 288.347656 240.660156 286.976562 242.960938 285.535156 L 260.140625 301.855469 C 264.183594 299.070312 268.058594 296.070312 271.78125 292.886719 L 260.472656 272.082031 C 262.457031 270.230469 264.382812 268.308594 266.230469 266.320312 L 287.035156 277.628906 C 290.21875 273.910156 293.222656 270.03125 296.003906 265.992188 L 279.6875 248.808594 C 281.125 246.507812 282.496094 244.15625 283.777344 241.75 L 306.851562 247.300781 C 308.960938 242.910156 310.820312 238.378906 312.464844 233.746094 L 292.242188 221.367188 C 293.03125 218.777344 293.714844 216.136719 294.328125 213.472656 L 318.054688 212.863281 C 318.9375 208.089844 319.574219 203.238281 319.957031 198.308594 L 297.1875 191.578125 C 297.234375 190.226562 297.289062 188.871094 297.289062 187.503906 " fill-opacity="1" fill-rule="nonzero"/></g><g clip-path="url(#39e5c41aa7)"><path fill="#ffffff" d="M 181.65625 233.757812 C 156.152344 233.757812 135.402344 213.007812 135.402344 187.503906 C 135.402344 162.003906 156.152344 141.253906 181.65625 141.253906 C 207.15625 141.253906 227.910156 162.003906 227.910156 187.503906 C 227.910156 213.007812 207.15625 233.757812 181.65625 233.757812 Z M 181.65625 99.625 C 133.199219 99.625 93.773438 139.046875 93.773438 187.503906 C 93.773438 235.964844 133.199219 275.386719 181.65625 275.386719 C 230.113281 275.386719 269.535156 235.964844 269.535156 187.503906 C 269.535156 139.046875 230.113281 99.625 181.65625 99.625 " fill-opacity="1" fill-rule="nonzero"/></g><g clip-path="url(#70e5c43a4a)"><path fill="#ffffff" d="M 181.65625 284.636719 C 128.097656 284.636719 84.523438 241.0625 84.523438 187.503906 C 84.523438 133.945312 128.097656 90.371094 181.65625 90.371094 C 235.214844 90.371094 278.789062 133.945312 278.789062 187.503906 C 278.789062 241.0625 235.214844 284.636719 181.65625 284.636719 Z M 297.289062 187.503906 C 297.289062 186.140625 297.234375 184.785156 297.1875 183.433594 L 319.957031 176.703125 C 319.574219 171.773438 318.9375 166.921875 318.054688 162.148438 L 294.328125 161.539062 C 293.714844 158.871094 293.03125 156.234375 292.242188 153.644531 L 312.464844 141.265625 C 310.820312 136.632812 308.960938 132.101562 306.851562 127.707031 L 283.777344 133.257812 C 282.496094 130.851562 281.125 128.5 279.683594 126.199219 L 296.003906 109.019531 C 293.222656 104.976562 290.21875 101.101562 287.035156 97.378906 L 266.230469 108.691406 C 264.378906 106.703125 262.457031 104.78125 260.472656 102.929688 L 271.78125 82.125 C 268.058594 78.941406 264.183594 75.9375 260.140625 73.15625 L 242.960938 89.476562 C 240.660156 88.03125 238.308594 86.664062 235.902344 85.382812 L 241.453125 62.308594 C 237.058594 60.203125 232.527344 58.339844 227.894531 56.695312 L 215.515625 76.921875 C 212.925781 76.128906 210.289062 75.445312 207.625 74.835938 L 207.011719 51.105469 C 202.242188 50.222656 197.390625 49.585938 192.460938 49.203125 L 185.726562 71.976562 C 184.375 71.929688 183.019531 71.871094 181.65625 71.871094 C 180.292969 71.871094 178.933594 71.929688 177.582031 71.976562 L 170.851562 49.203125 C 165.921875 49.585938 161.070312 50.222656 156.296875 51.105469 L 155.6875 74.835938 C 153.023438 75.445312 150.382812 76.128906 147.792969 76.921875 L 135.414062 56.695312 C 130.78125 58.339844 126.25 60.203125 121.859375 62.308594 L 127.410156 85.382812 C 125 86.664062 122.652344 88.03125 120.347656 89.476562 L 103.167969 73.15625 C 99.128906 75.9375 95.25 78.941406 91.53125 82.125 L 102.839844 102.929688 C 100.851562 104.78125 98.933594 106.703125 97.078125 108.691406 L 76.273438 97.378906 C 73.089844 101.101562 70.089844 104.976562 67.304688 109.019531 L 83.625 126.199219 C 82.183594 128.5 80.8125 130.851562 79.53125 133.257812 L 56.460938 127.707031 C 54.351562 132.101562 52.488281 136.632812 50.847656 141.265625 L 71.070312 153.644531 C 70.277344 156.234375 69.597656 158.871094 68.984375 161.539062 L 45.257812 162.148438 C 44.375 166.921875 43.738281 171.773438 43.355469 176.703125 L 66.125 183.433594 C 66.078125 184.785156 66.023438 186.140625 66.023438 187.503906 C 66.023438 188.871094 66.078125 190.226562 66.125 191.578125 L 43.355469 198.308594 C 43.738281 203.238281 44.375 208.089844 45.257812 212.863281 L 68.984375 213.472656 C 69.597656 216.136719 70.277344 218.777344 71.070312 221.367188 L 50.847656 233.746094 C 52.488281 238.378906 54.351562 242.910156 56.460938 247.300781 L 79.53125 241.75 C 80.8125 244.15625 82.179688 246.507812 83.625 248.808594 L 67.304688 265.992188 C 70.089844 270.03125 73.089844 273.910156 76.273438 277.628906 L 97.078125 266.320312 C 98.929688 268.308594 100.851562 270.230469 102.839844 272.082031 L 91.53125 292.886719 C 95.25 296.070312 99.128906 299.070312 103.167969 301.855469 L 120.347656 285.535156 C 122.652344 286.976562 125 288.347656 127.410156 289.628906 L 121.859375 312.703125 C 126.25 314.808594 130.78125 316.671875 135.414062 318.3125 L 147.792969 298.089844 C 150.382812 298.882812 153.023438 299.5625 155.6875 300.175781 L 156.296875 323.902344 C 161.070312 324.785156 165.921875 325.421875 170.851562 325.804688 L 177.582031 303.035156 C 178.933594 303.082031 180.292969 303.136719 181.65625 303.136719 C 183.019531 303.136719 184.375 303.082031 185.726562 303.035156 L 192.460938 325.804688 C 197.390625 325.421875 202.242188 324.785156 207.011719 323.902344 L 207.625 300.175781 C 210.289062 299.5625 212.925781 298.882812 215.515625 298.089844 L 227.894531 318.3125 C 232.527344 316.671875 237.058594 314.808594 241.453125 312.703125 L 235.902344 289.628906 C 238.308594 288.347656 240.660156 286.976562 242.960938 285.535156 L 260.140625 301.855469 C 264.183594 299.070312 268.058594 296.070312 271.78125 292.886719 L 260.472656 272.082031 C 262.457031 270.230469 264.382812 268.308594 266.230469 266.320312 L 287.035156 277.628906 C 290.21875 273.910156 293.222656 270.03125 296.003906 265.992188 L 279.6875 248.808594 C 281.125 246.507812 282.496094 244.15625 283.777344 241.75 L 306.851562 247.300781 C 308.960938 242.910156 310.820312 238.378906 312.464844 233.746094 L 292.242188 221.367188 C 293.03125 218.777344 293.714844 216.136719 294.328125 213.472656 L 318.054688 212.863281 C 318.9375 208.089844 319.574219 203.238281 319.957031 198.308594 L 297.1875 191.578125 C 297.234375 190.226562 297.289062 188.871094 297.289062 187.503906 " fill-opacity="1" fill-rule="nonzero"/></g><g clip-path="url(#3802e5491d)"><path fill="#ffffff" d="M 181.65625 233.757812 C 156.152344 233.757812 135.402344 213.007812 135.402344 187.503906 C 135.402344 162.003906 156.152344 141.253906 181.65625 141.253906 C 207.15625 141.253906 227.910156 162.003906 227.910156 187.503906 C 227.910156 213.007812 207.15625 233.757812 181.65625 233.757812 Z M 181.65625 99.625 C 133.199219 99.625 93.773438 139.046875 93.773438 187.503906 C 93.773438 235.964844 133.199219 275.386719 181.65625 275.386719 C 230.113281 275.386719 269.535156 235.964844 269.535156 187.503906 C 269.535156 139.046875 230.113281 99.625 181.65625 99.625 " fill-opacity="1" fill-rule="nonzero"/></g><path stroke-linecap="butt" transform="matrix(0.75, 0, 0, 0.75, 37.500002, 163.502406)" fill="none" stroke-linejoin="miter" d="M -0.00000271667 2.502 L 384.406273 2.502 " stroke="#ffc107" stroke-width="5" stroke-opacity="1" stroke-miterlimit="4"/><path stroke-linecap="butt" transform="matrix(0.75, 0, 0, 0.75, 37.500002, 216.026513)" fill="none" stroke-linejoin="miter" d="M -0.00000271667 2.501108 L 384.406273 2.501108 " stroke="#ffc107" stroke-width="5" stroke-opacity="1" stroke-miterlimit="4"/><path fill="#ffc107" d="M 189.453125 245.664062 C 188.925781 245.136719 188.503906 244.519531 188.203125 243.847656 L 183.703125 248.347656 C 184.027344 248.457031 184.328125 248.640625 184.578125 248.890625 C 184.585938 248.898438 184.589844 248.90625 184.597656 248.914062 C 184.601562 248.917969 184.605469 248.917969 184.605469 248.921875 C 184.898438 249.226562 185.097656 249.601562 185.1875 250.007812 L 186.210938 251.976562 L 191.273438 246.917969 C 190.601562 246.613281 189.984375 246.191406 189.453125 245.664062 Z M 189.453125 245.664062 " fill-opacity="1" fill-rule="nonzero"/><path fill="#ffc107" d="M 176.925781 256.585938 C 176.917969 256.578125 176.910156 256.574219 176.902344 256.566406 C 176.648438 256.3125 176.46875 256.011719 176.359375 255.691406 L 169.839844 262.214844 C 170.554688 262.453125 171.214844 262.859375 171.765625 263.410156 C 172.304688 263.949219 172.691406 264.582031 172.929688 265.257812 L 179.988281 258.199219 L 178.019531 257.175781 C 177.613281 257.085938 177.238281 256.886719 176.933594 256.59375 C 176.929688 256.59375 176.929688 256.589844 176.925781 256.585938 Z M 176.925781 256.585938 " fill-opacity="1" fill-rule="nonzero"/><path fill="#ffc107" d="M 170.960938 264.214844 C 170.238281 263.488281 169.273438 263.089844 168.25 263.089844 C 167.226562 263.089844 166.261719 263.488281 165.539062 264.214844 C 164.042969 265.710938 164.042969 268.140625 165.539062 269.636719 C 166.261719 270.363281 167.226562 270.761719 168.25 270.761719 C 169.273438 270.761719 170.238281 270.363281 170.960938 269.636719 C 172.457031 268.140625 172.457031 265.710938 170.960938 264.214844 Z M 166.390625 266.855469 C 166.390625 265.820312 167.230469 264.980469 168.265625 264.980469 C 169.300781 264.980469 170.140625 265.820312 170.140625 266.855469 C 170.140625 267.890625 169.300781 268.730469 168.265625 268.730469 C 167.230469 268.730469 166.390625 267.890625 166.390625 266.855469 Z M 166.390625 266.855469 " fill-opacity="1" fill-rule="nonzero"/><path fill="#ffc107" d="M 190.257812 244.859375 C 191.097656 245.699219 192.214844 246.210938 193.398438 246.300781 C 193.523438 246.3125 193.652344 246.316406 193.777344 246.316406 C 195.101562 246.316406 196.351562 245.800781 197.289062 244.859375 C 198.566406 243.582031 199.035156 241.714844 198.5625 240.011719 L 196.1875 242.382812 C 195.726562 242.84375 195.113281 243.097656 194.460938 243.097656 C 193.808594 243.097656 193.195312 242.84375 192.734375 242.382812 C 192.273438 241.925781 192.019531 241.3125 192.019531 240.660156 C 192.019531 240.003906 192.273438 239.394531 192.734375 238.933594 L 195.109375 236.558594 C 194.675781 236.4375 194.222656 236.375 193.773438 236.375 C 192.445312 236.375 191.199219 236.890625 190.257812 237.832031 C 189.230469 238.859375 188.707031 240.277344 188.816406 241.722656 C 188.910156 242.90625 189.421875 244.023438 190.257812 244.859375 Z M 190.257812 244.859375 " fill-opacity="1" fill-rule="nonzero"/><path fill="#ffc107" d="M 164.792969 236.011719 C 164.535156 236.011719 164.339844 236.078125 164.214844 236.203125 C 163.71875 236.699219 164.1875 238.28125 165.5625 239.652344 L 178.085938 252.175781 L 180.1875 250.074219 L 167.664062 237.550781 C 166.730469 236.617188 165.605469 236.011719 164.792969 236.011719 Z M 164.792969 236.011719 " fill-opacity="1" fill-rule="nonzero"/><g clip-path="url(#3dea8b7b01)"><path fill="#ffc107" d="M 180.105469 256.566406 C 180.007812 256.660156 179.90625 256.742188 179.800781 256.820312 L 182.226562 258.078125 C 182.386719 258.164062 182.5 258.316406 182.527344 258.496094 C 182.554688 258.675781 182.496094 258.855469 182.367188 258.984375 L 181.417969 259.933594 L 191.25 269.769531 C 192.121094 270.640625 193.28125 271.121094 194.515625 271.121094 C 195.75 271.121094 196.910156 270.640625 197.78125 269.769531 C 199.582031 267.96875 199.582031 265.039062 197.78125 263.238281 L 187.949219 253.40625 L 186.996094 254.355469 C 186.871094 254.484375 186.6875 254.542969 186.507812 254.515625 C 186.328125 254.488281 186.175781 254.375 186.089844 254.214844 L 184.832031 251.785156 C 184.753906 251.894531 184.671875 251.996094 184.578125 252.09375 Z M 194.03125 267.914062 C 192.980469 267.914062 192.132812 267.066406 192.132812 266.015625 C 192.132812 264.96875 192.980469 264.121094 194.03125 264.121094 C 195.078125 264.121094 195.925781 264.96875 195.925781 266.015625 C 195.925781 267.066406 195.078125 267.914062 194.03125 267.914062 Z M 194.03125 267.914062 " fill-opacity="1" fill-rule="nonzero"/></g><path fill="#ffc107" d="M 177.703125 254.164062 C 177.265625 254.605469 177.265625 255.320312 177.703125 255.761719 C 177.917969 255.972656 178.199219 256.089844 178.503906 256.089844 C 178.804688 256.089844 179.085938 255.972656 179.300781 255.761719 L 183.773438 251.289062 C 183.984375 251.074219 184.101562 250.792969 184.101562 250.492188 C 184.101562 250.1875 183.984375 249.90625 183.773438 249.691406 C 183.558594 249.480469 183.277344 249.363281 182.976562 249.363281 C 182.671875 249.363281 182.390625 249.480469 182.175781 249.691406 Z M 177.703125 254.164062 " fill-opacity="1" fill-rule="nonzero"/><g fill="#ffffff" fill-opacity="1"><g transform="translate(47.767031, 201.57069)"><g><path d="M 8.265625 -8.046875 L 8.265625 0 L 1.734375 0 L 1.734375 -19.609375 L 8.265625 -19.609375 L 8.265625 -11.84375 L 14.515625 -11.84375 L 14.515625 -8.046875 Z M 9.296875 -15.8125 L 9.296875 -19.609375 L 19.5 -19.609375 L 19.5 -13.9375 L 13.359375 -13.9375 L 13.359375 -15.8125 Z M 9.296875 0 L 9.296875 -3.921875 L 12.96875 -3.921875 L 12.96875 -5.875 L 19.5 -5.875 L 19.5 0 Z M 9.296875 0 "/></g></g></g><g fill="#ffffff" fill-opacity="1"><g transform="translate(68.680798, 201.57069)"><g><path d="M 10.234375 0 L 5.34375 0 L 1.421875 -3.921875 L 1.421875 -15.6875 L 5.34375 -19.609375 L 10.390625 -19.609375 L 10.390625 -15.6875 L 7.953125 -15.6875 L 7.953125 -3.921875 L 13.125 -3.921875 L 19.5 2.09375 L 15.984375 5.5 Z M 20.375 -3.921875 L 17.5625 -1.0625 L 13.84375 -4.5 L 13.84375 -15.6875 L 11.390625 -15.6875 L 11.390625 -19.609375 L 16.46875 -19.609375 L 20.375 -15.6875 Z M 20.375 -3.921875 "/></g></g></g><g fill="#ffffff" fill-opacity="1"><g transform="translate(90.510928, 201.57069)"><g><path d="M 20.515625 -3.921875 L 16.59375 0 L 11.5625 0 L 11.5625 -3.921875 L 13.984375 -3.921875 L 13.984375 -19.609375 L 20.515625 -19.609375 Z M 8.109375 -3.921875 L 10.515625 -3.921875 L 10.515625 0 L 5.5 0 L 1.5625 -3.921875 L 1.5625 -19.609375 L 8.109375 -19.609375 Z M 8.109375 -3.921875 "/></g></g></g><g fill="#ffffff" fill-opacity="1"><g transform="translate(112.607099, 201.57069)"><g><path d="M 1.4375 -4.1875 L 3.40625 -4.1875 L 3.40625 -15.4375 L 1.4375 -15.4375 L 1.4375 -19.609375 L 11.890625 -19.609375 L 11.890625 -15.4375 L 9.9375 -15.4375 L 9.9375 -4.1875 L 11.890625 -4.1875 L 11.890625 0 L 1.4375 0 Z M 1.4375 -4.1875 "/></g></g></g><g fill="#ffffff" fill-opacity="1"><g transform="translate(125.938698, 201.57069)"><g><path d="M 1.703125 0 L 1.703125 -19.609375 L 8.109375 -19.609375 L 8.109375 0 Z M 9.140625 -15.6875 L 9.140625 -19.609375 L 16.484375 -19.609375 L 20.390625 -15.6875 L 20.390625 -8.96875 L 16.484375 -5.046875 L 9.140625 -5.046875 L 9.140625 -8.96875 L 13.890625 -8.96875 L 13.890625 -15.6875 Z M 9.140625 -15.6875 "/></g></g></g><g fill="#ffffff" fill-opacity="1"><g transform="translate(147.488002, 201.57069)"><g><path d="M 14.59375 -2.140625 L 8.1875 -2.140625 L 9.546875 -6.03125 L 13.09375 -6.03125 L 7.84375 -19.609375 L 14.21875 -19.609375 L 22.03125 0 L 15.421875 0 Z M 6.4375 0 L 0.140625 0 L 7.140625 -18.71875 L 10.03125 -10.9375 Z M 6.4375 0 "/></g></g></g><g fill="#ffffff" fill-opacity="1"><g transform="translate(169.658067, 201.57069)"><g><path d="M 1.75 -19.609375 L 8.6875 -19.609375 L 13.953125 -10.890625 L 18.09375 -17.984375 L 18.09375 -8.109375 L 13.375 0 Z M 19.046875 0 L 19.046875 -19.609375 L 25.578125 -19.609375 L 25.578125 0 Z M 1.734375 0 L 1.734375 -17.796875 L 7.828125 -7.546875 L 7.828125 0 Z M 1.734375 0 "/></g></g></g><g fill="#ffffff" fill-opacity="1"><g transform="translate(196.971588, 201.57069)"><g><path d="M 1.4375 -4.1875 L 3.40625 -4.1875 L 3.40625 -15.4375 L 1.4375 -15.4375 L 1.4375 -19.609375 L 11.890625 -19.609375 L 11.890625 -15.4375 L 9.9375 -15.4375 L 9.9375 -4.1875 L 11.890625 -4.1875 L 11.890625 0 L 1.4375 0 Z M 1.4375 -4.1875 "/></g></g></g><g fill="#ffffff" fill-opacity="1"><g transform="translate(210.303188, 201.57069)"><g><path d="M 8.265625 -8.046875 L 8.265625 0 L 1.734375 0 L 1.734375 -19.609375 L 8.265625 -19.609375 L 8.265625 -11.84375 L 14.515625 -11.84375 L 14.515625 -8.046875 Z M 9.296875 -15.8125 L 9.296875 -19.609375 L 19.5 -19.609375 L 19.5 -13.9375 L 13.359375 -13.9375 L 13.359375 -15.8125 Z M 9.296875 0 L 9.296875 -3.921875 L 12.96875 -3.921875 L 12.96875 -5.875 L 19.5 -5.875 L 19.5 0 Z M 9.296875 0 "/></g></g></g><g fill="#ffffff" fill-opacity="1"><g transform="translate(231.216955, 201.57069)"><g><path d="M 20.5625 0 L 13.609375 0 L 1.734375 -19.609375 L 8.625 -19.609375 Z M 1.734375 0 L 1.734375 -17.75 L 7.421875 -8.421875 L 7.421875 0 Z M 20.5625 -19.609375 L 20.5625 -1.859375 L 14.859375 -11.234375 L 14.859375 -19.609375 Z M 20.5625 -19.609375 "/></g></g></g><g fill="#ffffff" fill-opacity="1"><g transform="translate(253.505261, 201.57069)"><g><path d="M 5.875 -14.3125 L 12.671875 -14.3125 L 12.671875 0 L 5.875 0 Z M 0.765625 -19.609375 L 17.796875 -19.609375 L 17.796875 -15.34375 L 0.765625 -15.34375 Z M 0.765625 -19.609375 "/></g></g></g><g fill="#ffffff" fill-opacity="1"><g transform="translate(272.068995, 201.57069)"><g><path d="M 7.8125 -3.984375 L 10.265625 -3.984375 L 10.265625 0 L 5.25 0 L 1.265625 -3.921875 L 1.265625 -15.6875 L 5.25 -19.609375 L 10.265625 -19.609375 L 10.265625 -15.640625 L 7.8125 -15.640625 Z M 13.796875 -15.640625 L 11.3125 -15.640625 L 11.3125 -19.609375 L 16.375 -19.609375 L 20.328125 -15.6875 L 20.328125 -3.921875 L 16.375 0 L 11.3125 0 L 11.3125 -3.984375 L 13.796875 -3.984375 Z M 13.796875 -15.640625 "/></g></g></g><g fill="#ffffff" fill-opacity="1"><g transform="translate(293.692216, 201.57069)"><g><path d="M 13.84375 0 L 13.84375 -7.34375 L 5.359375 -7.34375 L 1.4375 -11.28125 L 1.4375 -15.6875 L 5.359375 -19.609375 L 7.578125 -19.609375 L 7.578125 -12.65625 L 16.59375 -12.65625 L 20.390625 -8.71875 L 20.390625 -3.921875 L 16.484375 0 Z M 8.609375 -16.078125 L 8.609375 -19.609375 L 16.46875 -19.609375 L 19.859375 -16.203125 L 19.859375 -14.109375 L 13.84375 -14.109375 L 13.84375 -16.078125 Z M 1.4375 -5.875 L 7.96875 -5.875 L 7.96875 -3.546875 L 12.8125 -3.546875 L 12.8125 0 L 4.734375 0 L 1.4375 -3.921875 Z M 1.4375 -5.875 "/></g></g></g><g fill="#ffc107" fill-opacity="1"><g transform="translate(130.936065, 150.370698)"><g><path d="M 5.625 -4.6875 L 3.796875 -3.15625 L -1.296875 -3.609375 L -8.25 -11.921875 L -7.75 -17 L -5.921875 -18.53125 Z M -2.890625 -16.390625 L -5.1875 -19.15625 L -0.28125 -23.25 L 4.78125 -22.796875 L 7.109375 -20.015625 L 2.5 -16.15625 L 0.171875 -18.9375 Z M 6.359375 -5.3125 L 4.0625 -8.078125 L 7.125 -10.625 L 5.421875 -12.640625 L 10.03125 -16.5 L 11.734375 -14.484375 L 11.265625 -9.40625 Z M 6.359375 -5.3125 "/></g></g></g><g fill="#ffc107" fill-opacity="1"><g transform="translate(145.647927, 137.937142)"><g><path d="M 4.796875 -21.6875 L 10.34375 -24.0625 L 17.46875 -7.5 L 11.9375 -5.125 L 9.046875 -11.859375 L 4.96875 -10.109375 L 3.546875 -13.421875 L 7.609375 -15.171875 Z M 6.984375 -3 L 1.46875 -0.625 L -5.65625 -17.1875 L -0.140625 -19.5625 Z M 6.984375 -3 "/></g></g></g><g fill="#ffc107" fill-opacity="1"><g transform="translate(164.237899, 129.909967)"><g><path d="M 13.125 -3.4375 L 7.265625 -2.78125 L 8.125 -6.484375 L 11.34375 -6.84375 L 5.171875 -18.71875 L 11 -19.375 L 20.140625 -2.234375 L 14.09375 -1.5625 Z M 5.890625 -0.65625 L 0.125 -0.015625 L 4.609375 -17.828125 L 8.046875 -11.015625 Z M 5.890625 -0.65625 "/></g></g></g><g fill="#ffc107" fill-opacity="1"><g transform="translate(184.219454, 127.770252)"><g><path d="M 11.84375 2.046875 L 6.078125 1.046875 L 2.703125 -17.828125 L 8.765625 -16.78125 Z M 15.828125 -15.5625 L 21.765625 -14.53125 L 12.65625 1.640625 L 11.34375 -6.65625 Z M 15.828125 -15.5625 "/></g></g></g><g fill="#ffc107" fill-opacity="1"><g transform="translate(202.375602, 130.835136)"><g><path d="M 10.046875 -3.421875 L 6.859375 3.265625 L 1.4375 0.6875 L 9.203125 -15.578125 L 14.625 -13 L 11.546875 -6.5625 L 16.734375 -4.078125 L 15.234375 -0.9375 Z M 13.984375 -9.4375 L 15.484375 -12.578125 L 23.953125 -8.53125 L 21.703125 -3.828125 L 16.59375 -6.265625 L 17.34375 -7.828125 Z M 7.71875 3.6875 L 9.265625 0.4375 L 12.3125 1.890625 L 13.09375 0.265625 L 18.515625 2.859375 L 16.1875 7.734375 Z M 7.71875 3.6875 "/></g></g></g><g fill="#ffc107" fill-opacity="1"><g transform="translate(219.516464, 139.135284)"><g><path d="M 2.734375 -2.109375 L 21.234375 -5.53125 L 24.3125 -2.875 L 22.03125 -0.234375 L 3.53125 3.03125 L 0.53125 0.453125 Z M 12.359375 10.640625 L 4.453125 3.828125 L 9.625 3.0625 L 14.9375 7.640625 Z M 12.578125 -12.96875 L 20.34375 -6.296875 L 15.171875 -5.546875 L 10 -9.984375 Z M 12.578125 -12.96875 "/></g></g></g></svg>